<?xml version="1.0" encoding="utf-8"?>
<svg version="1.1" width="230px" height="176px" style="shape-rendering:geometricPrecision; text-rendering:geometricPrecision; image-rendering:optimizeQuality; fill-rule:evenodd; clip-rule:evenodd" xmlns="http://www.w3.org/2000/svg">
  <defs/>
  <g>
    <path style="opacity:1" fill="transparent" d="M -0.5,-0.5 C 76.1667,-0.5 152.833,-0.5 229.5,-0.5C 229.5,58.1667 229.5,116.833 229.5,175.5C 152.833,175.5 76.1667,175.5 -0.5,175.5C -0.5,116.833 -0.5,58.1667 -0.5,-0.5 Z"/>
  </g>
  <g>
    <path style="opacity: 1; fill: rgb(234, 85, 60);" d="M 25.5,19.5 C 24.6618,19.8417 24.3284,20.5084 24.5,21.5C 22.7631,19.3599 21.5965,17.0266 21,14.5C 22.7073,16.0375 24.2073,17.7041 25.5,19.5 Z"/>
  </g>
  <g>
    <path style="opacity: 1; fill: rgb(234, 85, 60);" d="M 25.5,19.5 C 39.5531,31.5837 55.8864,38.7503 74.5,41C 86.1171,42.5643 97.7838,43.5643 109.5,44C 135.167,44.3333 160.833,44.6667 186.5,45C 196.091,45.2517 205.424,46.9183 214.5,50C 216.585,51.743 218.252,53.743 219.5,56C 217.537,63.5874 213.537,69.9208 207.5,75C 191.667,88.8333 175.833,102.667 160,116.5C 159.333,115.833 159.333,115.167 160,114.5C 162,111.833 164,109.167 166,106.5C 175.37,96.7984 184.37,86.7984 193,76.5C 195.748,71.2391 194.581,67.0725 189.5,64C 184.658,62.0524 179.658,60.719 174.5,60C 147.503,58.9616 120.503,57.9616 93.5,57C 73.594,55.5865 55.2607,49.5865 38.5,39C 32.7433,33.9572 28.0766,28.1239 24.5,21.5C 24.3284,20.5084 24.6618,19.8417 25.5,19.5 Z"/>
  </g>
  <g>
    <path style="opacity: 1; fill: rgb(234, 85, 60);" d="M 67.5,129.5 C 81.6523,128.151 87.8189,134.485 86,148.5C 80.359,157.548 72.859,159.548 63.5,154.5C 58.3129,149.369 57.1463,143.369 60,136.5C 61.7424,133.254 64.2424,130.921 67.5,129.5 Z"/>
  </g>
  <g>
    <path style="opacity: 1; fill: rgb(234, 85, 60);" d="M 132.5,129.5 C 146.652,128.151 152.819,134.485 151,148.5C 145.851,157.497 138.684,159.664 129.5,155C 123.514,149.996 122.014,143.83 125,136.5C 126.742,133.254 129.242,130.921 132.5,129.5 Z"/>
  </g>
</svg>